<svg width="363" height="331" viewBox="0 0 363 331" fill="none" xmlns="http://www.w3.org/2000/svg">
<path d="M357.745 331H0.290809C0.252619 331 0.214804 330.992 0.179521 330.977C0.144239 330.962 0.11218 330.94 0.085176 330.912C0.0581719 330.884 0.036751 330.851 0.0221365 330.815C0.007522 330.778 0 330.739 0 330.699C0 330.66 0.007522 330.621 0.0221365 330.584C0.036751 330.548 0.0581719 330.515 0.085176 330.487C0.11218 330.459 0.144239 330.437 0.179521 330.422C0.214804 330.407 0.252619 330.399 0.290809 330.399H357.745C357.822 330.399 357.896 330.431 357.95 330.487C358.005 330.543 358.035 330.62 358.035 330.699C358.035 330.779 358.005 330.856 357.95 330.912C357.896 330.968 357.823 331 357.745 331Z" fill="#292A2E"/>
<path d="M357.745 331H0.290809C0.252619 331 0.214804 330.992 0.179521 330.977C0.144239 330.962 0.11218 330.94 0.085176 330.912C0.0581719 330.884 0.036751 330.851 0.0221365 330.815C0.007522 330.778 0 330.739 0 330.699C0 330.66 0.007522 330.621 0.0221365 330.584C0.036751 330.548 0.0581719 330.515 0.085176 330.487C0.11218 330.459 0.144239 330.437 0.179521 330.422C0.214804 330.407 0.252619 330.399 0.290809 330.399H357.745C357.822 330.399 357.896 330.431 357.95 330.487C358.005 330.543 358.035 330.62 358.035 330.699C358.035 330.779 358.005 330.856 357.95 330.912C357.896 330.968 357.823 331 357.745 331Z" fill="#292A2E"/>
<path d="M25.177 330.471L24.3611 330.309L37.1134 199.344L37.9294 199.507L25.177 330.471Z" fill="#494949"/>
<path d="M72.6611 330.471L71.8451 330.309L84.5975 199.344L85.413 199.507L72.6611 330.471Z" fill="#494949"/>
<path d="M177.621 330.471L178.437 330.309L165.685 199.344L164.869 199.507L177.621 330.471Z" fill="#494949"/>
<path d="M130.138 330.471L130.953 330.309L118.201 199.344L117.385 199.507L130.138 330.471Z" fill="#494949"/>
<path d="M113.226 141.707L112.402 141.82L119.852 199.484L120.675 199.37L113.226 141.707Z" fill="#494949"/>
<path d="M27.7177 141.706L26.8941 141.82L34.3438 199.483L35.1674 199.369L27.7177 141.706Z" fill="#494949"/>
<path d="M120.604 195.203H36.9676C34.7111 195.203 32.8818 197.093 32.8818 199.425C32.8818 201.758 34.7111 203.649 36.9676 203.649H120.604C122.861 203.649 124.69 201.758 124.69 199.426C124.69 197.094 122.861 195.203 120.604 195.203Z" fill="#292A2E"/>
<path d="M120.604 195.203H36.9676C34.7111 195.203 32.8818 197.093 32.8818 199.425C32.8818 201.758 34.7111 203.649 36.9676 203.649H120.604C122.861 203.649 124.69 201.758 124.69 199.426C124.69 197.094 122.861 195.203 120.604 195.203Z" fill="white"/>
<path d="M120.603 204.078H36.9676C35.7812 204.066 34.6473 203.571 33.8124 202.7C32.9775 201.828 32.5091 200.652 32.5091 199.426C32.5091 198.2 32.9775 197.023 33.8124 196.152C34.6473 195.281 35.7812 194.785 36.9676 194.773H120.603C121.789 194.785 122.923 195.281 123.758 196.152C124.593 197.023 125.061 198.2 125.061 199.426C125.061 200.652 124.593 201.828 123.758 202.7C122.923 203.571 121.789 204.066 120.603 204.078ZM36.9676 195.632C36.0009 195.643 35.0772 196.047 34.3972 196.757C33.7172 197.468 33.3358 198.427 33.3358 199.426C33.3358 200.425 33.7172 201.384 34.3972 202.094C35.0772 202.804 36.0009 203.209 36.9676 203.219H120.603C121.569 203.209 122.493 202.804 123.173 202.094C123.853 201.384 124.234 200.425 124.234 199.426C124.234 198.427 123.853 197.468 123.173 196.757C122.493 196.047 121.569 195.643 120.603 195.632H36.9676Z" fill="#292A2E"/>
<path d="M166.508 195.203H82.8718C80.6152 195.203 78.7859 197.093 78.7859 199.425C78.7859 201.758 80.6152 203.649 82.8718 203.649H166.508C168.765 203.649 170.594 201.758 170.594 199.426C170.594 197.094 168.765 195.203 166.508 195.203Z" fill="white"/>
<path d="M166.509 204.078H82.8722C82.2774 204.084 81.6874 203.968 81.1362 203.737C80.5851 203.506 80.0837 203.164 79.6611 202.731C79.2385 202.299 78.903 201.784 78.674 201.216C78.4451 200.649 78.3272 200.04 78.3272 199.426C78.3272 198.811 78.4451 198.202 78.674 197.635C78.903 197.068 79.2385 196.553 79.6611 196.12C80.0837 195.688 80.5851 195.346 81.1362 195.115C81.6874 194.884 82.2774 194.768 82.8722 194.773H166.509C167.104 194.768 167.694 194.884 168.245 195.115C168.796 195.346 169.297 195.688 169.72 196.12C170.143 196.553 170.478 197.068 170.707 197.635C170.936 198.202 171.054 198.811 171.054 199.426C171.054 200.04 170.936 200.649 170.707 201.216C170.478 201.784 170.143 202.299 169.72 202.731C169.297 203.164 168.796 203.506 168.245 203.737C167.694 203.968 167.104 204.084 166.509 204.078ZM82.8722 195.632C82.3869 195.627 81.9053 195.721 81.4555 195.909C81.0056 196.098 80.5963 196.376 80.2513 196.729C79.9063 197.082 79.6324 197.502 79.4455 197.965C79.2586 198.427 79.1623 198.924 79.1623 199.426C79.1623 199.927 79.2586 200.424 79.4455 200.887C79.6324 201.35 79.9063 201.77 80.2513 202.122C80.5963 202.475 81.0056 202.754 81.4555 202.942C81.9053 203.13 82.3869 203.225 82.8722 203.219H166.509C166.994 203.225 167.476 203.13 167.926 202.942C168.375 202.754 168.785 202.475 169.13 202.122C169.475 201.77 169.749 201.35 169.936 200.887C170.122 200.424 170.219 199.927 170.219 199.426C170.219 198.924 170.122 198.427 169.936 197.965C169.749 197.502 169.475 197.082 169.13 196.729C168.785 196.376 168.375 196.098 167.926 195.909C167.476 195.721 166.994 195.627 166.509 195.632H82.8722Z" fill="#292A2E"/>
<path d="M108.644 141.762H27.5305C26.2043 141.762 24.9235 141.264 23.9271 140.359C22.9307 139.455 22.2868 138.207 22.1156 136.848L16.7502 94.2649C16.6498 93.4689 16.715 92.6599 16.9412 91.8921C17.1674 91.1242 17.5496 90.415 18.0621 89.8119C18.5746 89.2087 19.2058 88.7256 19.9134 88.3946C20.621 88.0636 21.3887 87.8924 22.1654 87.8925H103.279C104.605 87.8925 105.886 88.3912 106.882 89.2956C107.878 90.2 108.522 91.4482 108.694 92.8072L114.059 135.39C114.159 136.186 114.094 136.995 113.868 137.763C113.642 138.53 113.259 139.24 112.747 139.843C112.235 140.446 111.603 140.929 110.896 141.26C110.188 141.591 109.421 141.762 108.644 141.762Z" fill="#292A2E"/>
<path d="M108.644 141.762H27.5305C26.2043 141.762 24.9235 141.264 23.9271 140.359C22.9307 139.455 22.2868 138.207 22.1156 136.848L16.7502 94.2649C16.6498 93.4689 16.715 92.6599 16.9412 91.8921C17.1674 91.1242 17.5496 90.415 18.0621 89.8119C18.5746 89.2087 19.2058 88.7256 19.9134 88.3946C20.621 88.0636 21.3887 87.8924 22.1654 87.8925H103.279C104.605 87.8925 105.886 88.3912 106.882 89.2956C107.878 90.2 108.522 91.4482 108.694 92.8072L114.059 135.39C114.159 136.186 114.094 136.995 113.868 137.763C113.642 138.53 113.259 139.24 112.747 139.843C112.235 140.446 111.603 140.929 110.896 141.26C110.188 141.591 109.421 141.762 108.644 141.762Z" fill="white"/>
<path d="M108.644 142.192H27.5305C26.1044 142.188 24.728 141.651 23.6565 140.678C22.5849 139.706 21.891 138.365 21.7035 136.904L16.3381 94.3211C16.2301 93.4646 16.3002 92.5942 16.5436 91.7679C16.787 90.9416 17.1982 90.1785 17.7497 89.5295C18.3012 88.8805 18.9803 88.3605 19.7417 88.0044C20.5031 87.6482 21.3293 87.464 22.165 87.464H103.279C104.705 87.4673 106.082 88.0052 107.153 88.9779C108.225 89.9505 108.919 91.2919 109.106 92.7531L114.471 135.335C114.579 136.192 114.509 137.062 114.266 137.889C114.022 138.715 113.611 139.478 113.059 140.127C112.508 140.776 111.829 141.296 111.067 141.652C110.306 142.008 109.48 142.192 108.644 142.192ZM22.165 88.3218C21.4475 88.3218 20.7381 88.4801 20.0844 88.7859C19.4307 89.0917 18.8477 89.5382 18.3742 90.0954C17.9007 90.6526 17.5477 91.3079 17.3387 92.0173C17.1297 92.7267 17.0696 93.4741 17.1623 94.2095L22.5273 136.792C22.6883 138.047 23.2841 139.198 24.2041 140.033C25.1241 140.868 26.306 141.33 27.5305 141.333H108.644C109.362 141.333 110.071 141.175 110.725 140.869C111.379 140.563 111.962 140.116 112.436 139.559C112.909 139.002 113.262 138.346 113.471 137.637C113.68 136.927 113.74 136.18 113.647 135.444L108.282 92.8618C108.121 91.6074 107.525 90.4559 106.605 89.6211C105.685 88.7862 104.503 88.3246 103.279 88.3218H22.165Z" fill="#292A2E"/>
<path d="M113.231 141.762H32.1173C30.7912 141.762 29.5103 141.264 28.5138 140.359C27.5174 139.455 26.8734 138.207 26.7021 136.848L21.3366 94.2649C21.2364 93.4689 21.3017 92.66 21.528 91.8922C21.7542 91.1244 22.1364 90.4152 22.6489 89.8121C23.1614 89.2091 23.7925 88.7259 24.5 88.3948C25.2075 88.0638 25.9753 87.8925 26.7519 87.8925H107.866C109.192 87.8925 110.473 88.3912 111.469 89.2956C112.466 90.1999 113.11 91.4481 113.281 92.8072L118.646 135.39C118.746 136.186 118.681 136.995 118.455 137.763C118.229 138.53 117.846 139.24 117.334 139.843C116.821 140.446 116.19 140.929 115.483 141.26C114.775 141.591 114.008 141.762 113.231 141.762Z" fill="white"/>
<path d="M113.231 142.192H32.1173C30.6913 142.188 29.3148 141.651 28.2433 140.678C27.1717 139.706 26.4778 138.365 26.2904 136.904L20.9249 94.3211C20.817 93.4646 20.8871 92.5942 21.1305 91.7679C21.3739 90.9416 21.7851 90.1785 22.3366 89.5295C22.8881 88.8805 23.5672 88.3605 24.3286 88.0044C25.09 87.6482 25.9162 87.464 26.7519 87.464H107.866C109.292 87.4673 110.668 88.0051 111.74 88.9778C112.812 89.9505 113.505 91.2919 113.693 92.7531L119.058 135.335C119.166 136.192 119.096 137.062 118.852 137.889C118.609 138.715 118.198 139.478 117.646 140.127C117.095 140.776 116.416 141.296 115.654 141.652C114.893 142.008 114.067 142.192 113.231 142.192ZM26.7519 88.3218C26.0343 88.3218 25.325 88.4801 24.6713 88.7859C24.0176 89.0917 23.4345 89.5382 22.961 90.0954C22.4874 90.6526 22.1344 91.3078 21.9254 92.0173C21.7163 92.7267 21.6561 93.4741 21.7488 94.2095L27.1142 136.792C27.275 138.047 27.8707 139.198 28.7908 140.033C29.7109 140.868 30.8928 141.33 32.1173 141.333H113.231C113.949 141.333 114.658 141.175 115.312 140.869C115.966 140.563 116.549 140.117 117.023 139.559C117.496 139.002 117.849 138.346 118.058 137.637C118.267 136.927 118.327 136.18 118.235 135.444L112.869 92.8618C112.708 91.6072 112.113 90.4555 111.193 89.6204C110.272 88.7852 109.09 88.3234 107.866 88.3205L26.7519 88.3218Z" fill="#292A2E"/>
<path d="M227.629 308.568C227.629 308.568 229.857 320.501 240.667 321.166C251.478 321.83 249.134 330.732 249.134 330.732H207.821V309.4L227.629 308.568Z" fill="black"/>
<path d="M149.032 301.034C149.032 301.034 145.934 312.757 155.351 318.286C164.768 323.815 158.863 330.732 158.863 330.732L121.792 311.883L130.903 292.742L149.032 301.034Z" fill="black"/>
<path d="M115.766 22.9764C115.766 22.9764 121.156 18.7718 122.492 9.0934C123.526 1.59956 116.837 6.45419 116.837 6.45419C116.837 6.45419 117.531 1.05128 113.722 1.5871C109.912 2.12293 107.781 7.79977 107.781 7.79977" fill="#0C0C0C"/>
<path d="M94.0343 2.21954C94.0343 2.21954 75.1338 4.3139 81.9661 30.7823L87.0337 31.1331" fill="#0C0C0C"/>
<path d="M112.601 58.4246C112.518 58.4135 111.595 74.2246 93.8203 72.8473C81.5149 71.895 77.1275 58.4023 76.8454 58.4023C78.1723 58.1108 79.8116 57.6685 80.4635 57.5165C81.8835 57.1759 83.1696 56.3964 84.1505 55.2818C85.1314 54.1673 85.7608 52.7705 85.9548 51.2773C86.315 49.0361 85.7055 37.569 85.892 35.3012L104.781 39.6587C104.517 44.4481 102.67 55.5514 109.143 57.5165C110.222 57.8416 111.382 58.1404 112.601 58.4246Z" fill="#E98862"/>
<path d="M105.046 52.9788C104.751 51.9934 104.56 50.9775 104.478 49.9493C104.271 47.6027 104.313 45.2396 104.603 42.9024C100.763 42.3668 97.1466 40.7291 94.1631 38.1753C93.8124 39.514 91.8835 45.3634 92.4182 46.636C93.4256 49.0408 98.1687 52.9788 105.046 52.9788Z" fill="#0C0C0C"/>
<path d="M101.148 49.8492C93.6957 49.1584 84.7766 44.2926 84.6482 33.8384L84.5319 24.4061C84.4035 13.9519 89.6119 5.40744 99.1363 5.2825C108.66 5.15713 115.884 13.5384 116.012 23.9922L116.063 28.168C116.057 29.6022 115.956 31.0343 115.761 32.4542C115.272 36.211 114.514 41.9226 112.048 45.7868C109.718 49.4341 105.908 50.2906 101.148 49.8492Z" fill="#E98862"/>
<path d="M104.605 40.2937C106.143 40.3657 107.676 40.0632 109.079 39.4105C109.108 39.3977 109.135 39.3791 109.157 39.3558C109.179 39.3325 109.196 39.305 109.208 39.2747C109.22 39.2444 109.226 39.2121 109.225 39.1795C109.225 39.1469 109.219 39.1146 109.206 39.0846C109.194 39.0546 109.176 39.0275 109.153 39.0046C109.131 38.9818 109.104 38.9638 109.075 38.9517C109.045 38.9395 109.014 38.9334 108.983 38.9338C108.951 38.9341 108.92 38.9409 108.891 38.9537C105.866 40.2868 103.12 40.0915 100.949 38.3891C100.905 38.3533 100.859 38.3199 100.812 38.2891C100.758 38.2629 100.696 38.2589 100.638 38.2777C100.581 38.2965 100.533 38.3368 100.503 38.3907C100.473 38.4446 100.463 38.5081 100.476 38.5688C100.489 38.6294 100.524 38.6828 100.573 38.7184C100.591 38.7296 100.619 38.7523 100.656 38.7837C101.798 39.6821 103.173 40.2079 104.605 40.2937Z" fill="#0C0C0C"/>
<path d="M104.533 42.6487C104.811 42.6666 105.09 42.6597 105.367 42.628C105.43 42.6211 105.488 42.5884 105.528 42.5372C105.568 42.486 105.587 42.4205 105.58 42.355C105.573 42.2895 105.542 42.2295 105.492 42.1881C105.443 42.1467 105.379 42.1273 105.316 42.1343C103.651 42.3172 102.857 41.5289 102.823 41.495C102.778 41.4505 102.717 41.4261 102.655 41.427C102.592 41.4279 102.532 41.454 102.488 41.4997C102.444 41.5454 102.418 41.6072 102.418 41.6719C102.417 41.7366 102.44 41.7991 102.483 41.8462C103.056 42.3502 103.781 42.6337 104.533 42.6487Z" fill="#0C0C0C"/>
<path d="M112.867 30.1782C113.515 30.1782 114.04 29.6354 114.04 28.9658C114.04 28.2961 113.515 27.7533 112.867 27.7533C112.219 27.7533 111.693 28.2961 111.693 28.9658C111.693 29.6354 112.219 30.1782 112.867 30.1782Z" fill="#0C0C0C"/>
<path d="M101.405 29.435C102.053 29.435 102.579 28.8922 102.579 28.2226C102.579 27.5529 102.053 27.0101 101.405 27.0101C100.757 27.0101 100.232 27.5529 100.232 28.2226C100.232 28.8922 100.757 29.435 101.405 29.435Z" fill="#0C0C0C"/>
<path d="M85.2788 37.0156C82.3845 37.0538 79.999 33.8844 79.9612 30.8931C79.9234 27.9018 82.2503 26.2218 85.1447 26.1836L86.6606 28.168L87.7665 36.983L85.2788 37.0156Z" fill="#E98862"/>
<path d="M88.1566 32.2091C88.1566 32.2091 89.1341 17.4167 93.4743 16.5035C96.3649 15.8951 103.375 20.1324 109.867 18.8525C112.708 18.2943 115.405 19.0195 115.679 20.4059C115.787 20.955 117.557 13.064 113.109 7.07718C109.567 2.31142 97.9772 0.963265 92.7044 2.52609C78.1046 6.85478 84.5472 26.8349 84.5472 26.8349L85.1982 31.9343L88.1566 32.2091Z" fill="#0C0C0C"/>
<path d="M106.353 36.8027C106.359 36.8031 106.365 36.8031 106.372 36.8027C107.304 36.7928 108.868 36.6691 108.861 35.9478C108.855 35.3502 107.21 28.9173 107.022 28.1856C107.001 28.1286 106.961 28.0816 106.908 28.0537C106.856 28.0259 106.795 28.0191 106.738 28.0348C106.681 28.0505 106.632 28.0875 106.6 28.1386C106.568 28.1897 106.555 28.2513 106.565 28.3114C107.296 31.1606 108.384 35.5468 108.389 35.9538C108.298 36.1256 107.335 36.302 106.369 36.3123C106.308 36.3137 106.25 36.3392 106.207 36.3835C106.164 36.4278 106.138 36.4876 106.137 36.5506C106.135 36.6135 106.157 36.6747 106.197 36.7217C106.238 36.7686 106.294 36.7976 106.355 36.8027H106.353Z" fill="#0C0C0C"/>
<path d="M109.537 22.3916C110.517 22.1128 111.552 22.1128 112.532 22.3916C113.014 22.5253 113.473 22.7332 113.895 23.0081C114.312 23.2773 114.694 23.5999 115.033 23.9682C115.098 24.0331 115.135 24.1218 115.138 24.2151C115.14 24.3085 115.107 24.3991 115.046 24.4676C114.984 24.5361 114.899 24.577 114.809 24.5815C114.719 24.5861 114.63 24.5539 114.563 24.492L114.542 24.4731C114.228 24.1731 113.879 23.915 113.503 23.705C113.134 23.4961 112.737 23.3463 112.324 23.2606C111.513 23.0842 110.671 23.1328 109.883 23.4014L109.85 23.4134C109.72 23.4609 109.577 23.4531 109.452 23.3917C109.328 23.3303 109.232 23.2204 109.186 23.0861C109.141 22.9517 109.148 22.8041 109.207 22.6755C109.267 22.547 109.373 22.4481 109.503 22.4006L109.537 22.3916Z" fill="#0C0C0C"/>
<path d="M102.596 23C101.85 22.6254 101.021 22.4611 100.194 22.5238C99.7747 22.552 99.3614 22.6458 98.9689 22.802C98.5698 22.9587 98.1913 23.1664 97.8422 23.4203L97.8198 23.4358C97.7448 23.4854 97.6543 23.5033 97.5669 23.4857C97.4795 23.4682 97.4021 23.4165 97.3506 23.3414C97.2992 23.2663 97.2777 23.1737 97.2906 23.0827C97.3036 22.9917 97.3499 22.9093 97.4201 22.8527C97.8034 22.5344 98.224 22.2673 98.6718 22.0576C99.1254 21.8435 99.6074 21.7008 100.102 21.6342C100.597 21.5623 101.099 21.561 101.595 21.6304C102.103 21.6957 102.6 21.8355 103.071 22.0455C103.198 22.1025 103.297 22.2091 103.348 22.3419C103.399 22.4748 103.396 22.623 103.341 22.754C103.286 22.8849 103.183 22.9879 103.054 23.0402C102.926 23.0926 102.782 23.09 102.656 23.033C102.646 23.0287 102.636 23.024 102.627 23.0189L102.596 23Z" fill="#0C0C0C"/>
<path d="M108.142 12.2083C110.284 11.7457 111.487 8.72891 110.828 5.47008C110.17 2.21125 107.899 -0.0555488 105.756 0.407041C103.614 0.869632 102.411 3.88644 103.07 7.14527C103.729 10.4041 106 12.6709 108.142 12.2083Z" fill="#0C0C0C"/>
<path d="M126.072 297.722L157.334 195.799H100.668C89.2845 195.799 84.5394 185.823 84.5394 174.06C84.5394 162.297 95.7297 151.985 107.112 151.985H183.59C190.533 151.985 198.317 156.373 202.128 162.371C205.938 168.369 204.908 177.663 202.147 184.246L152.087 309.902" fill="#262626"/>
<path d="M126.072 297.722L157.334 195.799H100.668C89.2845 195.799 84.5394 185.823 84.5394 174.06C84.5394 162.297 95.7297 151.985 107.112 151.985H183.59C190.533 151.985 198.317 156.373 202.128 162.371C205.938 168.369 204.908 177.663 202.147 184.246L152.087 309.902" fill="#0A0A0A"/>
<path d="M205.445 319.65L153.173 195.799L84.5385 195.794C68.4564 194.491 61.091 185.383 61.3253 173.622C61.5563 162.01 67.2454 150.541 78.4303 150.541H170.937C179.213 150.717 185.724 160.168 188.794 168.112L232.249 312.068" fill="#262626"/>
<path d="M56.6442 150.683C56.6442 150.683 53.5961 171.226 58.4276 182.647C64.4594 196.906 87.0711 195.795 87.0711 195.795L85.7969 150.542L56.6442 150.683Z" fill="#262626"/>
<path d="M190.761 150.279L142.279 139.897C140.258 139.464 138.376 138.512 136.807 137.128C135.237 135.745 134.03 133.974 133.298 131.98L114.23 80.0496C113.649 78.491 113.372 76.8293 113.415 75.1598C113.457 73.4903 113.819 71.846 114.478 70.3213C115.137 68.7965 116.082 67.4214 117.257 66.275C118.432 65.1286 119.815 64.2334 121.325 63.6408C122.836 63.0483 124.445 62.77 126.061 62.8221C127.676 62.8742 129.265 63.2556 130.737 63.9443C132.209 64.6331 133.535 65.6157 134.639 66.8356C135.743 68.0555 136.602 69.4888 137.168 71.053L153.849 116.478L195.74 125.449C195.74 125.449 191.601 150.459 190.761 150.279Z" fill="#1F41BB"/>
<path d="M134.686 93.2392C134.126 100.037 130.158 142.447 129.618 150.82H56.6761C56.257 143.268 54.375 110.246 52.7859 95.4769C51.2688 81.3853 49.1421 74.9725 50.8895 70.5932C53.9712 62.8697 63.7806 59.4203 70.4235 58.4912C74.4795 57.9236 80.5802 57.5165 80.5802 57.5165C80.5802 57.5165 81.097 68.3159 93.414 68.917C110.181 69.7328 109.061 57.5165 109.144 57.5165C111.86 57.5165 126.646 59.5581 130.343 62.0483C135.565 65.566 137.108 70.3592 137.169 74.7634C137.239 79.834 135.321 85.5276 134.686 93.2392Z" fill="#1F41BB"/>
<path d="M131.819 127.891H131.802C131.775 127.888 131.748 127.88 131.724 127.867C131.7 127.855 131.678 127.837 131.661 127.815C131.643 127.794 131.63 127.769 131.621 127.742C131.613 127.715 131.61 127.687 131.612 127.659L133.506 104.15C133.507 104.122 133.514 104.094 133.527 104.069C133.539 104.043 133.556 104.021 133.577 104.002C133.598 103.984 133.622 103.97 133.648 103.962C133.675 103.954 133.702 103.951 133.73 103.954C133.757 103.956 133.783 103.964 133.808 103.977C133.832 103.99 133.853 104.008 133.871 104.029C133.889 104.051 133.902 104.076 133.91 104.103C133.919 104.129 133.922 104.158 133.92 104.186L132.026 127.694C132.021 127.748 131.998 127.798 131.96 127.834C131.921 127.87 131.871 127.89 131.819 127.891Z" fill="#0C0C0C"/>
<path d="M143.546 146.158L159.551 95.3129C159.832 94.4194 160.379 93.6409 161.115 93.0888C161.851 92.5366 162.736 92.2392 163.646 92.2392H228.85C229.53 92.2391 230.2 92.4054 230.805 92.7244C231.411 93.0433 231.935 93.5059 232.334 94.0743C232.734 94.6426 232.997 95.3007 233.103 95.9945C233.209 96.6884 233.155 97.3983 232.945 98.0663L216.94 148.911C216.659 149.804 216.112 150.583 215.376 151.135C214.64 151.687 213.755 151.985 212.845 151.985H147.641C146.961 151.985 146.291 151.818 145.686 151.5C145.08 151.181 144.556 150.718 144.157 150.15C143.757 149.581 143.494 148.923 143.388 148.229C143.282 147.536 143.336 146.826 143.546 146.158Z" fill="#292A2E"/>
<path d="M143.546 146.158L159.551 95.3129C159.832 94.4194 160.379 93.6409 161.115 93.0888C161.851 92.5366 162.736 92.2392 163.646 92.2392H228.85C229.53 92.2391 230.2 92.4054 230.805 92.7244C231.411 93.0433 231.935 93.5059 232.334 94.0743C232.734 94.6426 232.997 95.3007 233.103 95.9945C233.209 96.6884 233.155 97.3983 232.945 98.0663L216.94 148.911C216.659 149.804 216.112 150.583 215.376 151.135C214.64 151.687 213.755 151.985 212.845 151.985H147.641C146.961 151.985 146.291 151.818 145.686 151.5C145.08 151.181 144.556 150.718 144.157 150.15C143.757 149.581 143.494 148.923 143.388 148.229C143.282 147.536 143.336 146.826 143.546 146.158Z" fill="white"/>
<path d="M156.602 147.862H112.954C111.866 147.862 110.985 148.773 110.985 149.897V149.95C110.985 151.074 111.866 151.985 112.954 151.985H156.602C157.689 151.985 158.571 151.074 158.571 149.95V149.897C158.571 148.773 157.689 147.862 156.602 147.862Z" fill="#292A2E"/>
<path d="M156.602 147.862H112.954C111.866 147.862 110.985 148.773 110.985 149.897V149.95C110.985 151.074 111.866 151.985 112.954 151.985H156.602C157.689 151.985 158.571 151.074 158.571 149.95V149.897C158.571 148.773 157.689 147.862 156.602 147.862Z" fill="white"/>
<path d="M188.246 131.66C192.022 131.66 195.084 128.496 195.084 124.592C195.084 120.689 192.022 117.525 188.246 117.525C184.469 117.525 181.407 120.689 181.407 124.592C181.407 128.496 184.469 131.66 188.246 131.66Z" fill="white"/>
<path d="M135.347 83.7617H118.009V105.737H135.347V83.7617Z" fill="white"/>
<path d="M118.009 102.087C116.604 102.087 115.231 101.657 114.064 100.85C112.896 100.044 111.986 98.8981 111.449 97.5573C110.911 96.2164 110.771 94.741 111.045 93.3176C111.319 91.8942 111.995 90.5867 112.988 89.5604C113.981 88.5342 115.246 87.8353 116.623 87.5522C118.001 87.269 119.428 87.4144 120.726 87.9698C122.023 88.5252 123.132 89.4657 123.912 90.6724C124.692 91.8791 125.109 93.2979 125.109 94.7492C125.107 96.6947 124.358 98.5599 123.027 99.9355C121.696 101.311 119.891 102.085 118.009 102.087ZM118.009 90.417C117.179 90.417 116.369 90.6712 115.679 91.1472C114.99 91.6233 114.453 92.3 114.135 93.0917C113.818 93.8834 113.735 94.7545 113.897 95.595C114.059 96.4354 114.458 97.2074 115.044 97.8133C115.631 98.4192 116.378 98.8318 117.191 98.9989C118.004 99.1661 118.847 99.0802 119.613 98.7522C120.379 98.4242 121.034 97.8689 121.494 97.1563C121.955 96.4438 122.201 95.6061 122.201 94.7492C122.2 93.6005 121.758 92.4992 120.972 91.687C120.186 90.8748 119.12 90.4181 118.009 90.417Z" fill="white"/>
<path d="M119.009 98.0049C118.85 97.5805 118.553 97.227 118.168 97.0065C117.783 96.786 117.336 96.7125 116.903 96.7989C116.912 96.7783 116.916 96.7563 116.916 96.734L117.498 96.4653C117.905 96.2862 118.241 95.9672 118.447 95.5621C118.653 95.1571 118.717 94.6909 118.628 94.2425C118.567 93.9626 118.447 93.7001 118.276 93.4741C118.105 93.248 117.887 93.0641 117.639 92.9354C117.391 92.8067 117.118 92.7366 116.84 92.73C116.563 92.7234 116.287 92.7806 116.034 92.8974L114.662 93.5315C114.662 93.526 114.662 93.5204 114.659 93.5148C114.653 93.5034 114.647 93.4927 114.639 93.483C114.977 93.2197 115.219 92.8459 115.325 92.4224C115.431 91.999 115.395 91.5509 115.223 91.1512C114.842 90.086 113.491 90.001 112.599 90.4127L109.012 91.9082L110.094 90.7734C110.434 90.4034 110.624 89.9141 110.628 89.4045C110.631 88.8948 110.448 88.4027 110.114 88.0277C109.934 87.8404 109.72 87.6928 109.484 87.5939C109.248 87.495 108.995 87.4469 108.74 87.4524C108.485 87.458 108.235 87.5171 108.003 87.6262C107.771 87.7353 107.563 87.8921 107.392 88.087L94.6375 102.482L98.9996 106.824C100.354 108.172 102.067 109.072 103.92 109.408C105.772 109.743 107.68 109.499 109.397 108.707L117.171 105.105C117.579 104.926 117.914 104.607 118.12 104.202C118.326 103.797 118.39 103.331 118.301 102.883C118.213 102.48 118.003 102.117 117.701 101.847C117.399 101.577 117.022 101.413 116.624 101.38C116.628 101.358 116.628 101.335 116.624 101.312C116.62 101.29 116.611 101.269 116.599 101.25C116.587 101.231 116.571 101.215 116.553 101.202C116.534 101.19 116.514 101.181 116.492 101.177L117.928 100.515C118.382 100.316 118.746 99.9462 118.947 99.4803C119.148 99.0143 119.17 98.487 119.009 98.0049Z" fill="#E98862"/>
<path d="M112.068 94.7496C112.027 94.7498 111.987 94.7351 111.955 94.7081C111.924 94.681 111.902 94.6434 111.894 94.6016C111.887 94.5599 111.893 94.5166 111.913 94.4794C111.933 94.4422 111.965 94.4134 112.003 94.398L114.43 93.4105C114.451 93.4017 114.474 93.3974 114.497 93.3978C114.52 93.3982 114.543 93.4033 114.564 93.4129C114.586 93.4224 114.605 93.4361 114.621 93.4533C114.637 93.4705 114.65 93.4908 114.658 93.5131C114.667 93.5353 114.671 93.5591 114.67 93.583C114.67 93.6069 114.665 93.6305 114.656 93.6524C114.646 93.6743 114.633 93.6942 114.617 93.7108C114.6 93.7274 114.58 93.7404 114.559 93.7492L112.133 94.7367C112.112 94.7451 112.09 94.7495 112.068 94.7496Z" fill="#0C0C0C"/>
<path d="M113.422 98.2951C113.381 98.295 113.342 98.2803 113.31 98.2534C113.279 98.2265 113.257 98.1891 113.25 98.1477C113.242 98.1062 113.248 98.0633 113.268 98.0262C113.287 97.9891 113.319 97.9602 113.356 97.9444L116.675 96.5649C116.718 96.5494 116.765 96.5515 116.806 96.5709C116.847 96.5902 116.88 96.6253 116.897 96.6688C116.914 96.7122 116.914 96.7608 116.897 96.8043C116.88 96.8478 116.848 96.8829 116.806 96.9023L113.488 98.2823C113.467 98.2907 113.445 98.2951 113.422 98.2951Z" fill="#0C0C0C"/>
<path d="M114.869 102.145C114.828 102.145 114.788 102.13 114.757 102.102C114.725 102.075 114.703 102.037 114.696 101.995C114.689 101.953 114.696 101.91 114.716 101.873C114.737 101.836 114.769 101.807 114.808 101.792L116.39 101.179C116.433 101.162 116.482 101.163 116.524 101.183C116.567 101.203 116.6 101.24 116.617 101.285C116.633 101.33 116.632 101.38 116.613 101.424C116.593 101.468 116.558 101.502 116.514 101.52L114.932 102.133C114.912 102.141 114.891 102.145 114.869 102.145Z" fill="#0C0C0C"/>
<path d="M122.698 69.7834C122.621 69.7835 122.546 69.7617 122.481 69.7205C122.415 69.6793 122.362 69.6203 122.327 69.5499C121.382 67.644 120.205 65.2714 120.337 62.7842C120.443 60.8062 121.34 59.0489 122.207 57.3517C122.767 56.3258 123.244 55.2539 123.634 54.147C124.11 52.6196 124.229 50.9978 123.984 49.4134C123.739 47.8291 123.135 46.327 122.222 45.0294C122.187 44.9842 122.162 44.9324 122.148 44.877C122.133 44.8216 122.13 44.7638 122.137 44.7069C122.145 44.6501 122.163 44.5954 122.191 44.546C122.22 44.4967 122.257 44.4537 122.302 44.4196C122.347 44.3855 122.397 44.361 122.451 44.3475C122.505 44.3341 122.561 44.3319 122.616 44.3412C122.671 44.3505 122.723 44.3711 122.77 44.4017C122.817 44.4323 122.858 44.4723 122.89 44.5193C123.881 45.9275 124.538 47.5578 124.805 49.2776C125.072 50.9973 124.942 52.758 124.427 54.4162C124.023 55.5689 123.528 56.6849 122.945 57.7527C122.081 59.4439 121.265 61.0411 121.17 62.8319C121.049 65.0864 122.123 67.2499 123.069 69.1583C123.102 69.2237 123.118 69.2967 123.115 69.3701C123.112 69.4436 123.091 69.5151 123.054 69.5778C123.017 69.6406 122.965 69.6924 122.903 69.7284C122.841 69.7644 122.771 69.7834 122.7 69.7834H122.698Z" fill="white"/>
<path d="M129.368 76.4847C129.276 76.4847 129.187 76.4531 129.114 76.3948C129.041 76.3365 128.989 76.2548 128.966 76.1627C128.943 76.0705 128.95 75.9731 128.987 75.8856C129.023 75.7982 129.087 75.7258 129.167 75.6797C130.707 74.8021 130.879 72.3595 130.156 70.5052C129.797 69.6529 129.377 68.8294 128.9 68.0416C128.262 67.0208 127.743 65.9255 127.355 64.7785C126.958 63.3802 126.933 61.8971 127.283 60.4854C127.632 59.0736 128.343 57.7852 129.341 56.7557C129.421 56.6776 129.527 56.635 129.636 56.6372C129.746 56.6394 129.85 56.6862 129.926 56.7674C130.002 56.8487 130.045 56.9577 130.043 57.0709C130.042 57.1841 129.998 57.2923 129.92 57.3719C129.03 58.29 128.396 59.4388 128.084 60.6978C127.773 61.9567 127.795 63.2791 128.149 64.5261C128.518 65.6082 129.01 66.6412 129.615 67.6036C130.114 68.4281 130.553 69.2905 130.926 70.1836C131.773 72.3548 131.585 75.2821 129.568 76.431C129.507 76.466 129.438 76.4845 129.368 76.4847Z" fill="white"/>
<path d="M109.261 113.91L48.0873 140.075C45.8817 141.008 43.4609 141.257 41.1207 140.791C38.7805 140.325 36.6221 139.165 34.9095 137.452C33.1968 135.74 32.0039 133.549 31.4765 131.147C30.9492 128.745 31.1102 126.236 31.9399 123.927L50.1853 72.4252C52.5442 65.8614 59.1891 62.0869 65.5408 64.5252C68.5907 65.696 71.0657 68.0709 72.4214 71.1275C73.777 74.1841 73.9022 77.6721 72.7695 80.8241L64.4474 105.2L100.3 90.9155" fill="#1F41BB"/>
<path d="M109.112 114.144C109.079 114.143 109.048 114.133 109.02 114.114C108.993 114.096 108.972 114.069 108.96 114.038L100.059 91.1967L64.3265 105.449C64.2969 105.46 64.2646 105.463 64.2336 105.456C64.2026 105.449 64.1741 105.434 64.1517 105.41C64.1294 105.387 64.114 105.358 64.1076 105.325C64.1011 105.293 64.1038 105.26 64.1154 105.23L69.6408 90.5733C69.6566 90.5316 69.6877 90.498 69.7274 90.48C69.7671 90.462 69.8121 90.4611 69.8525 90.4774C69.8929 90.4936 69.9253 90.5258 69.9427 90.5669C69.9601 90.6079 69.9611 90.6544 69.9453 90.6961L64.5546 104.995L100.092 90.8206C100.132 90.8047 100.176 90.8056 100.216 90.8233C100.255 90.841 100.286 90.8739 100.302 90.9151L109.264 113.911C109.279 113.953 109.278 113.999 109.261 114.04C109.245 114.082 109.213 114.114 109.173 114.132C109.153 114.14 109.133 114.144 109.112 114.144Z" fill="#0C0C0C"/>
<path d="M53.1042 109.984C53.0659 109.984 53.0287 109.971 52.9991 109.945C52.9696 109.92 52.9494 109.885 52.9423 109.846C52.9352 109.808 52.9415 109.767 52.9602 109.733C52.9788 109.698 53.0086 109.672 53.0444 109.657L64.2359 105.106C64.256 105.098 64.2775 105.093 64.2992 105.094C64.3209 105.094 64.3423 105.098 64.3623 105.107C64.3823 105.116 64.4003 105.129 64.4155 105.145C64.4306 105.161 64.4425 105.18 64.4505 105.201C64.4584 105.222 64.4623 105.244 64.4618 105.266C64.4614 105.289 64.4566 105.311 64.4478 105.331C64.439 105.352 64.4264 105.37 64.4106 105.386C64.3949 105.401 64.3763 105.413 64.356 105.421L53.164 109.972C53.1449 109.98 53.1246 109.984 53.1042 109.984Z" fill="#0C0C0C"/>
<path d="M55.7107 137.019C55.6727 137.02 55.6359 137.006 55.6066 136.981C55.5772 136.956 55.5571 136.922 55.5497 136.883C55.5424 136.845 55.5482 136.805 55.5662 136.771C55.5842 136.736 55.6132 136.709 55.6483 136.694L109.051 113.819C109.071 113.81 109.092 113.806 109.114 113.806C109.135 113.806 109.156 113.81 109.176 113.819C109.196 113.827 109.214 113.84 109.229 113.855C109.244 113.871 109.256 113.89 109.265 113.91C109.273 113.931 109.277 113.953 109.277 113.975C109.277 113.997 109.273 114.019 109.264 114.04C109.256 114.06 109.244 114.079 109.229 114.094C109.214 114.11 109.196 114.122 109.176 114.131L55.773 137.006C55.7533 137.015 55.7321 137.019 55.7107 137.019Z" fill="#0C0C0C"/>
<path d="M326.832 274.695C326.722 274.695 326.616 274.65 326.538 274.569C325.953 273.964 324.999 262.866 322.429 229.821C321.377 216.3 320.384 203.529 319.66 195.767C319.608 195.213 319.4 195.148 319.331 195.127C318.339 194.818 315.321 197.277 313.637 199.43C313.568 199.519 313.467 199.575 313.358 199.587C313.248 199.599 313.138 199.566 313.053 199.494C312.967 199.423 312.912 199.319 312.9 199.206C312.889 199.093 312.921 198.979 312.99 198.891C314.105 197.467 317.736 193.734 319.57 194.305C319.94 194.42 320.401 194.752 320.487 195.685C321.212 203.453 322.205 216.228 323.257 229.752C324.819 249.833 326.588 272.582 327.169 274.015C327.214 274.079 327.241 274.155 327.246 274.233C327.252 274.312 327.237 274.391 327.202 274.461C327.167 274.532 327.114 274.591 327.049 274.632C326.984 274.673 326.909 274.695 326.832 274.695Z" fill="#494949"/>
<path d="M318.592 210.009C325.486 204.298 327.771 195.409 323.696 190.155C319.62 184.901 310.728 185.271 303.835 190.982C296.941 196.693 294.656 205.582 298.731 210.836C302.806 216.09 311.698 215.72 318.592 210.009Z" fill="#1F41BB"/>
<path d="M318.592 210.009C325.486 204.298 327.771 195.409 323.696 190.155C319.62 184.901 310.728 185.271 303.835 190.982C296.941 196.693 294.656 205.582 298.731 210.836C302.806 216.09 311.698 215.72 318.592 210.009Z" fill="white"/>
<path d="M300.663 212.173C300.624 212.173 300.585 212.161 300.552 212.139C300.519 212.117 300.492 212.086 300.475 212.049C300.459 212.012 300.452 211.971 300.458 211.931C300.463 211.89 300.479 211.852 300.504 211.821L320.151 187.335C320.168 187.313 320.189 187.295 320.213 187.281C320.238 187.268 320.264 187.259 320.292 187.256C320.319 187.253 320.347 187.256 320.373 187.264C320.4 187.273 320.424 187.286 320.445 187.305C320.467 187.323 320.484 187.345 320.497 187.371C320.51 187.396 320.517 187.423 320.52 187.452C320.522 187.48 320.519 187.509 320.51 187.536C320.502 187.563 320.488 187.588 320.47 187.61L300.823 212.095C300.804 212.119 300.779 212.139 300.752 212.152C300.724 212.166 300.694 212.173 300.663 212.173Z" fill="white"/>
<path d="M331.117 269.446C331.051 269.446 330.986 269.429 330.927 269.398C330.868 269.367 330.817 269.321 330.779 269.265C330.74 269.209 330.715 269.145 330.706 269.077C330.696 269.009 330.703 268.94 330.725 268.875L338.105 246.941C338.322 246.297 338.692 245.719 339.182 245.26C339.671 244.802 340.264 244.478 340.906 244.318C341.548 244.158 342.218 244.167 342.856 244.344C343.494 244.521 344.078 244.861 344.556 245.332L348.457 249.184C348.537 249.263 348.583 249.371 348.586 249.485C348.588 249.598 348.547 249.709 348.471 249.791C348.395 249.873 348.29 249.921 348.18 249.924C348.07 249.926 347.963 249.883 347.883 249.805L343.982 245.953C343.605 245.581 343.143 245.313 342.64 245.173C342.137 245.034 341.607 245.027 341.101 245.153C340.594 245.279 340.126 245.535 339.74 245.897C339.353 246.258 339.061 246.714 338.889 247.223L331.51 269.157C331.481 269.241 331.428 269.314 331.358 269.366C331.288 269.418 331.204 269.446 331.117 269.446Z" fill="#494949"/>
<path d="M359.358 261.328C364.467 257.149 364.164 247.957 358.68 240.797C353.197 233.638 344.61 231.222 339.501 235.401C334.392 239.581 334.696 248.772 340.179 255.932C345.663 263.091 354.25 265.507 359.358 261.328Z" fill="#1F41BB"/>
<path d="M323.479 273.296C323.386 273.296 323.295 273.263 323.222 273.204C323.149 273.144 323.097 273.06 323.076 272.966L310.691 219.451C310.607 219.086 310.426 218.752 310.17 218.487C309.914 218.221 309.592 218.033 309.239 217.945C308.886 217.856 308.517 217.869 308.171 217.984C307.825 218.098 307.517 218.308 307.279 218.592L303.462 223.151C303.426 223.194 303.383 223.229 303.334 223.254C303.285 223.279 303.232 223.295 303.178 223.299C303.123 223.303 303.068 223.296 303.017 223.278C302.965 223.26 302.917 223.232 302.876 223.195C302.834 223.158 302.801 223.113 302.776 223.063C302.752 223.012 302.737 222.957 302.733 222.901C302.729 222.845 302.736 222.788 302.753 222.735C302.77 222.681 302.798 222.632 302.833 222.589L306.651 218.03C306.989 217.627 307.427 217.329 307.919 217.167C308.41 217.005 308.935 216.986 309.436 217.113C309.936 217.239 310.394 217.506 310.758 217.883C311.121 218.261 311.378 218.735 311.498 219.253L323.882 272.768C323.908 272.879 323.89 272.996 323.832 273.093C323.774 273.19 323.682 273.259 323.575 273.286C323.543 273.293 323.511 273.297 323.479 273.296Z" fill="#494949"/>
<path d="M318.912 235.04C320.417 226.042 316.433 217.818 310.013 216.671C303.592 215.523 297.167 221.887 295.661 230.884C294.156 239.882 298.14 248.106 304.561 249.253C310.981 250.401 317.406 244.037 318.912 235.04Z" fill="#1F41BB"/>
<path d="M326.832 274.695C326.815 274.695 326.799 274.694 326.781 274.691C326.672 274.678 326.573 274.619 326.505 274.53C326.437 274.44 326.406 274.326 326.42 274.213L334.328 207.854C334.414 207.131 334.701 206.449 335.153 205.89C335.605 205.331 336.204 204.919 336.877 204.703C337.551 204.488 338.27 204.478 338.949 204.675C339.628 204.872 340.237 205.268 340.703 205.814L349.742 216.395C349.815 216.48 349.852 216.592 349.846 216.706C349.839 216.819 349.789 216.925 349.706 217.001C349.623 217.076 349.515 217.115 349.405 217.107C349.295 217.1 349.192 217.048 349.119 216.963L340.08 206.382C339.72 205.96 339.249 205.654 338.724 205.502C338.199 205.35 337.643 205.357 337.122 205.524C336.602 205.691 336.139 206.01 335.789 206.442C335.44 206.874 335.219 207.402 335.153 207.961L327.243 274.318C327.231 274.422 327.182 274.517 327.107 274.586C327.031 274.656 326.933 274.694 326.832 274.695Z" fill="#494949"/>
<path d="M359.012 222.274C362.165 216.381 358.455 208.022 350.723 203.602C342.992 199.183 334.168 200.377 331.014 206.269C327.861 212.161 331.571 220.521 339.303 224.941C347.034 229.36 355.858 228.166 359.012 222.274Z" fill="#1F41BB"/>
<path d="M359.358 261.328C364.467 257.149 364.164 247.957 358.68 240.797C353.197 233.638 344.61 231.222 339.501 235.401C334.392 239.581 334.696 248.772 340.179 255.932C345.663 263.091 354.25 265.507 359.358 261.328Z" fill="white"/>
<path d="M318.912 235.04C320.417 226.042 316.433 217.818 310.013 216.671C303.592 215.523 297.167 221.887 295.661 230.884C294.156 239.882 298.14 248.106 304.561 249.253C310.981 250.401 317.406 244.037 318.912 235.04Z" fill="white"/>
<path d="M359.012 222.274C362.165 216.381 358.455 208.022 350.723 203.602C342.992 199.183 334.168 200.377 331.014 206.269C327.861 212.161 331.571 220.521 339.303 224.941C347.034 229.36 355.858 228.166 359.012 222.274Z" fill="white"/>
<path d="M336.947 331H316.717L313.365 264.106H340.3L336.947 331Z" fill="#292A2E"/>
<path d="M336.947 331H316.717L313.365 264.106H340.3L336.947 331Z" fill="white"/>
<path d="M359.359 261.54C359.327 261.54 359.296 261.533 359.268 261.519C359.24 261.505 359.215 261.484 359.195 261.459L339.337 235.532C339.303 235.487 339.287 235.43 339.294 235.374C339.3 235.317 339.328 235.266 339.371 235.23C339.414 235.195 339.469 235.179 339.524 235.185C339.579 235.192 339.629 235.221 339.663 235.265L359.521 261.192C359.545 261.223 359.561 261.262 359.565 261.302C359.569 261.342 359.562 261.382 359.546 261.419C359.529 261.455 359.502 261.486 359.469 261.507C359.436 261.529 359.398 261.54 359.359 261.54Z" fill="white"/>
<path d="M357.691 224.351C357.647 224.351 357.604 224.336 357.569 224.308L332.158 205.134C332.136 205.117 332.117 205.096 332.103 205.072C332.089 205.048 332.079 205.022 332.075 204.994C332.071 204.966 332.072 204.937 332.078 204.91C332.085 204.883 332.096 204.857 332.112 204.834C332.128 204.811 332.149 204.792 332.172 204.777C332.195 204.763 332.221 204.753 332.248 204.748C332.275 204.744 332.303 204.745 332.329 204.752C332.356 204.759 332.381 204.771 332.403 204.787L357.814 223.963C357.848 223.99 357.874 224.028 357.887 224.07C357.9 224.113 357.9 224.159 357.886 224.202C357.873 224.244 357.847 224.282 357.812 224.308C357.777 224.335 357.734 224.349 357.691 224.35V224.351Z" fill="white"/>
<path d="M303.528 248.974C303.51 248.974 303.492 248.971 303.474 248.966C303.421 248.952 303.376 248.916 303.348 248.866C303.321 248.817 303.313 248.758 303.327 248.703L311.417 217.381C311.423 217.354 311.435 217.328 311.452 217.305C311.468 217.282 311.489 217.263 311.513 217.248C311.537 217.234 311.563 217.224 311.59 217.22C311.617 217.217 311.645 217.218 311.672 217.226C311.699 217.233 311.723 217.246 311.745 217.263C311.767 217.281 311.785 217.302 311.799 217.327C311.813 217.352 311.821 217.379 311.825 217.408C311.828 217.436 311.826 217.465 311.818 217.492L303.729 248.814C303.717 248.86 303.691 248.9 303.655 248.929C303.618 248.958 303.574 248.974 303.528 248.974Z" fill="white"/>
</svg>
